<mxfile host="app.diagrams.net" modified="2023-04-13T10:04:49.722Z" agent="Mozilla/5.0 (Windows NT 10.0; Win64; x64) AppleWebKit/537.36 (KHTML, like Gecko) Chrome/112.0.0.0 Safari/537.36" etag="lJpg4SJIv-ifqLzoBjNy" version="21.1.7" type="device">
  <diagram name="Page-1" id="6vvdZqkgYPf-zd9WcTJg">
    <mxGraphModel dx="993" dy="553" grid="1" gridSize="10" guides="1" tooltips="1" connect="1" arrows="1" fold="1" page="1" pageScale="1" pageWidth="850" pageHeight="1100" math="0" shadow="0">
      <root>
        <mxCell id="0" />
        <mxCell id="1" parent="0" />
        <mxCell id="Gb7iFlKyEbNaKXzZFRWw-1" value="&lt;font style=&quot;font-size: 22px;&quot;&gt;USER&lt;/font&gt;" style="rounded=0;whiteSpace=wrap;html=1;" vertex="1" parent="1">
          <mxGeometry x="90" y="280" width="150" height="50" as="geometry" />
        </mxCell>
        <mxCell id="Gb7iFlKyEbNaKXzZFRWw-2" value="&lt;font style=&quot;font-size: 18px;&quot;&gt;CONTACT&lt;/font&gt;" style="rounded=0;whiteSpace=wrap;html=1;" vertex="1" parent="1">
          <mxGeometry x="570" y="320" width="160" height="50" as="geometry" />
        </mxCell>
        <mxCell id="Gb7iFlKyEbNaKXzZFRWw-3" value="&lt;u&gt;ID&lt;/u&gt;" style="ellipse;whiteSpace=wrap;html=1;" vertex="1" parent="1">
          <mxGeometry x="10" y="170" width="70" height="50" as="geometry" />
        </mxCell>
        <mxCell id="Gb7iFlKyEbNaKXzZFRWw-4" value="Email" style="ellipse;whiteSpace=wrap;html=1;" vertex="1" parent="1">
          <mxGeometry x="200" y="130" width="90" height="60" as="geometry" />
        </mxCell>
        <mxCell id="Gb7iFlKyEbNaKXzZFRWw-5" value="Name" style="ellipse;whiteSpace=wrap;html=1;" vertex="1" parent="1">
          <mxGeometry x="90" y="130" width="90" height="50" as="geometry" />
        </mxCell>
        <mxCell id="Gb7iFlKyEbNaKXzZFRWw-6" value="Password" style="ellipse;whiteSpace=wrap;html=1;" vertex="1" parent="1">
          <mxGeometry x="310" y="150" width="75" height="60" as="geometry" />
        </mxCell>
        <mxCell id="Gb7iFlKyEbNaKXzZFRWw-7" value="Description" style="ellipse;whiteSpace=wrap;html=1;" vertex="1" parent="1">
          <mxGeometry x="180" y="430" width="90" height="60" as="geometry" />
        </mxCell>
        <mxCell id="Gb7iFlKyEbNaKXzZFRWw-8" value="Image" style="ellipse;whiteSpace=wrap;html=1;" vertex="1" parent="1">
          <mxGeometry x="50" y="430" width="90" height="60" as="geometry" />
        </mxCell>
        <mxCell id="Gb7iFlKyEbNaKXzZFRWw-9" value="role" style="ellipse;whiteSpace=wrap;html=1;" vertex="1" parent="1">
          <mxGeometry y="240" width="70" height="60" as="geometry" />
        </mxCell>
        <mxCell id="Gb7iFlKyEbNaKXzZFRWw-10" value="Enabled" style="ellipse;whiteSpace=wrap;html=1;" vertex="1" parent="1">
          <mxGeometry x="10" y="350" width="70" height="50" as="geometry" />
        </mxCell>
        <mxCell id="Gb7iFlKyEbNaKXzZFRWw-11" value="" style="endArrow=none;html=1;rounded=0;exitX=0.5;exitY=1;exitDx=0;exitDy=0;entryX=0.431;entryY=-0.08;entryDx=0;entryDy=0;entryPerimeter=0;" edge="1" parent="1" source="Gb7iFlKyEbNaKXzZFRWw-5" target="Gb7iFlKyEbNaKXzZFRWw-1">
          <mxGeometry width="50" height="50" relative="1" as="geometry">
            <mxPoint x="380" y="330" as="sourcePoint" />
            <mxPoint x="430" y="280" as="targetPoint" />
          </mxGeometry>
        </mxCell>
        <mxCell id="Gb7iFlKyEbNaKXzZFRWw-12" value="" style="endArrow=none;html=1;rounded=0;exitX=0;exitY=1;exitDx=0;exitDy=0;entryX=0.75;entryY=0;entryDx=0;entryDy=0;" edge="1" parent="1" source="Gb7iFlKyEbNaKXzZFRWw-4" target="Gb7iFlKyEbNaKXzZFRWw-1">
          <mxGeometry width="50" height="50" relative="1" as="geometry">
            <mxPoint x="380" y="330" as="sourcePoint" />
            <mxPoint x="430" y="280" as="targetPoint" />
          </mxGeometry>
        </mxCell>
        <mxCell id="Gb7iFlKyEbNaKXzZFRWw-13" value="" style="endArrow=none;html=1;rounded=0;exitX=0.356;exitY=1.011;exitDx=0;exitDy=0;exitPerimeter=0;" edge="1" parent="1" source="Gb7iFlKyEbNaKXzZFRWw-6">
          <mxGeometry width="50" height="50" relative="1" as="geometry">
            <mxPoint x="223" y="191" as="sourcePoint" />
            <mxPoint x="230" y="280" as="targetPoint" />
            <Array as="points">
              <mxPoint x="280" y="250" />
            </Array>
          </mxGeometry>
        </mxCell>
        <mxCell id="Gb7iFlKyEbNaKXzZFRWw-14" value="" style="endArrow=none;html=1;rounded=0;entryX=0.618;entryY=1.027;entryDx=0;entryDy=0;entryPerimeter=0;" edge="1" parent="1" target="Gb7iFlKyEbNaKXzZFRWw-1">
          <mxGeometry width="50" height="50" relative="1" as="geometry">
            <mxPoint x="70" y="370" as="sourcePoint" />
            <mxPoint x="240" y="290" as="targetPoint" />
            <Array as="points">
              <mxPoint x="70" y="360" />
            </Array>
          </mxGeometry>
        </mxCell>
        <mxCell id="Gb7iFlKyEbNaKXzZFRWw-15" value="" style="endArrow=none;html=1;rounded=0;exitX=1;exitY=0;exitDx=0;exitDy=0;entryX=1;entryY=0.25;entryDx=0;entryDy=0;" edge="1" parent="1" target="Gb7iFlKyEbNaKXzZFRWw-1">
          <mxGeometry width="50" height="50" relative="1" as="geometry">
            <mxPoint x="267" y="449" as="sourcePoint" />
            <mxPoint x="250" y="300" as="targetPoint" />
            <Array as="points" />
          </mxGeometry>
        </mxCell>
        <mxCell id="Gb7iFlKyEbNaKXzZFRWw-16" value="" style="endArrow=none;html=1;rounded=0;exitX=0.5;exitY=0;exitDx=0;exitDy=0;entryX=0.75;entryY=1;entryDx=0;entryDy=0;" edge="1" parent="1" target="Gb7iFlKyEbNaKXzZFRWw-1">
          <mxGeometry width="50" height="50" relative="1" as="geometry">
            <mxPoint x="105" y="440" as="sourcePoint" />
            <mxPoint x="193" y="341" as="targetPoint" />
            <Array as="points" />
          </mxGeometry>
        </mxCell>
        <mxCell id="Gb7iFlKyEbNaKXzZFRWw-17" value="" style="endArrow=none;html=1;rounded=0;exitX=1;exitY=1;exitDx=0;exitDy=0;entryX=0.25;entryY=0;entryDx=0;entryDy=0;" edge="1" parent="1" source="Gb7iFlKyEbNaKXzZFRWw-3" target="Gb7iFlKyEbNaKXzZFRWw-1">
          <mxGeometry width="50" height="50" relative="1" as="geometry">
            <mxPoint x="380" y="330" as="sourcePoint" />
            <mxPoint x="430" y="280" as="targetPoint" />
          </mxGeometry>
        </mxCell>
        <mxCell id="Gb7iFlKyEbNaKXzZFRWw-18" value="" style="endArrow=none;html=1;rounded=0;exitX=0.962;exitY=0.756;exitDx=0;exitDy=0;exitPerimeter=0;entryX=0;entryY=0.5;entryDx=0;entryDy=0;" edge="1" parent="1" source="Gb7iFlKyEbNaKXzZFRWw-9" target="Gb7iFlKyEbNaKXzZFRWw-1">
          <mxGeometry width="50" height="50" relative="1" as="geometry">
            <mxPoint x="380" y="330" as="sourcePoint" />
            <mxPoint x="430" y="280" as="targetPoint" />
          </mxGeometry>
        </mxCell>
        <mxCell id="Gb7iFlKyEbNaKXzZFRWw-19" value="&lt;u&gt;cid&lt;/u&gt;" style="ellipse;whiteSpace=wrap;html=1;" vertex="1" parent="1">
          <mxGeometry x="500" y="210" width="70" height="50" as="geometry" />
        </mxCell>
        <mxCell id="Gb7iFlKyEbNaKXzZFRWw-20" value="cname" style="ellipse;whiteSpace=wrap;html=1;" vertex="1" parent="1">
          <mxGeometry x="590" y="180" width="70" height="50" as="geometry" />
        </mxCell>
        <mxCell id="Gb7iFlKyEbNaKXzZFRWw-21" value="nickname" style="ellipse;whiteSpace=wrap;html=1;" vertex="1" parent="1">
          <mxGeometry x="690" y="180" width="70" height="50" as="geometry" />
        </mxCell>
        <mxCell id="Gb7iFlKyEbNaKXzZFRWw-22" value="work" style="ellipse;whiteSpace=wrap;html=1;" vertex="1" parent="1">
          <mxGeometry x="730" y="240" width="70" height="50" as="geometry" />
        </mxCell>
        <mxCell id="Gb7iFlKyEbNaKXzZFRWw-23" value="email" style="ellipse;whiteSpace=wrap;html=1;" vertex="1" parent="1">
          <mxGeometry x="740" y="320" width="70" height="50" as="geometry" />
        </mxCell>
        <mxCell id="Gb7iFlKyEbNaKXzZFRWw-24" value="image" style="ellipse;whiteSpace=wrap;html=1;" vertex="1" parent="1">
          <mxGeometry x="690" y="400" width="70" height="50" as="geometry" />
        </mxCell>
        <mxCell id="Gb7iFlKyEbNaKXzZFRWw-25" value="Phone" style="ellipse;whiteSpace=wrap;html=1;" vertex="1" parent="1">
          <mxGeometry x="580" y="410" width="90" height="50" as="geometry" />
        </mxCell>
        <mxCell id="Gb7iFlKyEbNaKXzZFRWw-26" value="Description" style="ellipse;whiteSpace=wrap;html=1;" vertex="1" parent="1">
          <mxGeometry x="460" y="370" width="90" height="50" as="geometry" />
        </mxCell>
        <mxCell id="Gb7iFlKyEbNaKXzZFRWw-27" value="" style="endArrow=none;html=1;rounded=0;entryX=0.638;entryY=1.027;entryDx=0;entryDy=0;entryPerimeter=0;exitX=0.188;exitY=0;exitDx=0;exitDy=0;exitPerimeter=0;" edge="1" parent="1" source="Gb7iFlKyEbNaKXzZFRWw-2" target="Gb7iFlKyEbNaKXzZFRWw-19">
          <mxGeometry width="50" height="50" relative="1" as="geometry">
            <mxPoint x="390" y="330" as="sourcePoint" />
            <mxPoint x="440" y="280" as="targetPoint" />
          </mxGeometry>
        </mxCell>
        <mxCell id="Gb7iFlKyEbNaKXzZFRWw-28" value="" style="endArrow=none;html=1;rounded=0;entryX=0.638;entryY=1;entryDx=0;entryDy=0;entryPerimeter=0;exitX=0.313;exitY=0;exitDx=0;exitDy=0;exitPerimeter=0;" edge="1" parent="1" source="Gb7iFlKyEbNaKXzZFRWw-2" target="Gb7iFlKyEbNaKXzZFRWw-20">
          <mxGeometry width="50" height="50" relative="1" as="geometry">
            <mxPoint x="610" y="330" as="sourcePoint" />
            <mxPoint x="555" y="271" as="targetPoint" />
          </mxGeometry>
        </mxCell>
        <mxCell id="Gb7iFlKyEbNaKXzZFRWw-29" value="" style="endArrow=none;html=1;rounded=0;entryX=0.5;entryY=1;entryDx=0;entryDy=0;exitX=0.438;exitY=0;exitDx=0;exitDy=0;exitPerimeter=0;" edge="1" parent="1" source="Gb7iFlKyEbNaKXzZFRWw-2" target="Gb7iFlKyEbNaKXzZFRWw-21">
          <mxGeometry width="50" height="50" relative="1" as="geometry">
            <mxPoint x="630" y="330" as="sourcePoint" />
            <mxPoint x="645" y="240" as="targetPoint" />
            <Array as="points" />
          </mxGeometry>
        </mxCell>
        <mxCell id="Gb7iFlKyEbNaKXzZFRWw-30" value="" style="endArrow=none;html=1;rounded=0;entryX=0;entryY=1;entryDx=0;entryDy=0;exitX=0.904;exitY=0.013;exitDx=0;exitDy=0;exitPerimeter=0;" edge="1" parent="1" source="Gb7iFlKyEbNaKXzZFRWw-2" target="Gb7iFlKyEbNaKXzZFRWw-22">
          <mxGeometry width="50" height="50" relative="1" as="geometry">
            <mxPoint x="650" y="330" as="sourcePoint" />
            <mxPoint x="735" y="240" as="targetPoint" />
            <Array as="points" />
          </mxGeometry>
        </mxCell>
        <mxCell id="Gb7iFlKyEbNaKXzZFRWw-31" value="" style="endArrow=none;html=1;rounded=0;entryX=0;entryY=0.5;entryDx=0;entryDy=0;exitX=1;exitY=0.25;exitDx=0;exitDy=0;" edge="1" parent="1" source="Gb7iFlKyEbNaKXzZFRWw-2" target="Gb7iFlKyEbNaKXzZFRWw-23">
          <mxGeometry width="50" height="50" relative="1" as="geometry">
            <mxPoint x="725" y="331" as="sourcePoint" />
            <mxPoint x="750" y="293" as="targetPoint" />
            <Array as="points" />
          </mxGeometry>
        </mxCell>
        <mxCell id="Gb7iFlKyEbNaKXzZFRWw-33" value="" style="endArrow=none;html=1;rounded=0;exitX=0.748;exitY=0.013;exitDx=0;exitDy=0;exitPerimeter=0;entryX=0;entryY=0.5;entryDx=0;entryDy=0;" edge="1" parent="1" source="Gb7iFlKyEbNaKXzZFRWw-26" target="Gb7iFlKyEbNaKXzZFRWw-2">
          <mxGeometry width="50" height="50" relative="1" as="geometry">
            <mxPoint x="390" y="330" as="sourcePoint" />
            <mxPoint x="440" y="280" as="targetPoint" />
            <Array as="points" />
          </mxGeometry>
        </mxCell>
        <mxCell id="Gb7iFlKyEbNaKXzZFRWw-34" value="" style="endArrow=none;html=1;rounded=0;exitX=0.63;exitY=0.053;exitDx=0;exitDy=0;exitPerimeter=0;entryX=0.5;entryY=1;entryDx=0;entryDy=0;" edge="1" parent="1" source="Gb7iFlKyEbNaKXzZFRWw-25" target="Gb7iFlKyEbNaKXzZFRWw-2">
          <mxGeometry width="50" height="50" relative="1" as="geometry">
            <mxPoint x="390" y="330" as="sourcePoint" />
            <mxPoint x="440" y="280" as="targetPoint" />
          </mxGeometry>
        </mxCell>
        <mxCell id="Gb7iFlKyEbNaKXzZFRWw-35" value="" style="endArrow=none;html=1;rounded=0;exitX=0.714;exitY=0;exitDx=0;exitDy=0;exitPerimeter=0;entryX=0.867;entryY=1.053;entryDx=0;entryDy=0;entryPerimeter=0;" edge="1" parent="1" source="Gb7iFlKyEbNaKXzZFRWw-24" target="Gb7iFlKyEbNaKXzZFRWw-2">
          <mxGeometry width="50" height="50" relative="1" as="geometry">
            <mxPoint x="390" y="330" as="sourcePoint" />
            <mxPoint x="440" y="280" as="targetPoint" />
          </mxGeometry>
        </mxCell>
        <mxCell id="Gb7iFlKyEbNaKXzZFRWw-36" value="Has" style="rhombus;whiteSpace=wrap;html=1;" vertex="1" parent="1">
          <mxGeometry x="410" y="470" width="80" height="80" as="geometry" />
        </mxCell>
        <mxCell id="Gb7iFlKyEbNaKXzZFRWw-37" value="" style="endArrow=none;html=1;rounded=0;exitX=1;exitY=0.5;exitDx=0;exitDy=0;entryX=0;entryY=0.5;entryDx=0;entryDy=0;" edge="1" parent="1" source="Gb7iFlKyEbNaKXzZFRWw-1" target="Gb7iFlKyEbNaKXzZFRWw-36">
          <mxGeometry width="50" height="50" relative="1" as="geometry">
            <mxPoint x="390" y="330" as="sourcePoint" />
            <mxPoint x="440" y="280" as="targetPoint" />
          </mxGeometry>
        </mxCell>
        <mxCell id="Gb7iFlKyEbNaKXzZFRWw-38" value="" style="endArrow=none;html=1;rounded=0;entryX=0.25;entryY=1;entryDx=0;entryDy=0;exitX=1;exitY=0.5;exitDx=0;exitDy=0;" edge="1" parent="1" source="Gb7iFlKyEbNaKXzZFRWw-36" target="Gb7iFlKyEbNaKXzZFRWw-2">
          <mxGeometry width="50" height="50" relative="1" as="geometry">
            <mxPoint x="390" y="330" as="sourcePoint" />
            <mxPoint x="440" y="280" as="targetPoint" />
          </mxGeometry>
        </mxCell>
        <mxCell id="Gb7iFlKyEbNaKXzZFRWw-39" value="&lt;b&gt;1&lt;/b&gt;" style="text;html=1;align=center;verticalAlign=middle;resizable=0;points=[];autosize=1;strokeColor=none;fillColor=none;" vertex="1" parent="1">
          <mxGeometry x="332.5" y="460" width="30" height="30" as="geometry" />
        </mxCell>
        <mxCell id="Gb7iFlKyEbNaKXzZFRWw-41" value="&lt;b&gt;M&lt;/b&gt;" style="text;html=1;align=center;verticalAlign=middle;resizable=0;points=[];autosize=1;strokeColor=none;fillColor=none;" vertex="1" parent="1">
          <mxGeometry x="520" y="460" width="30" height="30" as="geometry" />
        </mxCell>
      </root>
    </mxGraphModel>
  </diagram>
</mxfile>
